<svg xmlns="http://www.w3.org/2000/svg" xml:space="preserve" style="fill-rule:evenodd;clip-rule:evenodd;stroke-linejoin:round;stroke-miterlimit:2" viewBox="0 0 2169 1085">
  <path d="M0 0h1748.03v1240.16H0z" style="fill:none" transform="matrix(1.24054 0 0 .874311 .36 .53)"/>
  <path d="M88.694 313.105c0-124.177 9.324-210.215 40.759-210.215 31.701 0 40.492 86.038 40.492 210.215 0 123.291-8.791 208.442-40.758 208.442-32.501 0-40.493-85.151-40.493-208.442Zm117.481 0c0-175.622-20.246-309.557-76.722-309.557-56.742 0-76.988 133.048-76.988 309.557 0 175.623 20.512 307.784 76.722 307.784 55.677 0 76.988-132.161 76.988-307.784ZM357.222 92.246c-9.59-46.123-27.172-88.698-58.341-88.698-44.222 0-61.804 88.698-61.804 181.832 0 74.506 11.189 133.047 42.624 165.866l22.643 23.061c13.587 14.192 20.247 35.48 20.247 72.733 0 45.236-10.123 75.394-28.505 75.394-24.508 0-33.832-34.593-40.492-76.281l-23.976 65.637c7.459 47.01 24.775 109.986 64.468 109.986 37.562 0 64.734-67.411 64.734-183.606 0-76.28-11.721-131.273-43.955-164.979l-22.91-23.061c-13.32-14.192-18.648-36.367-18.648-71.846 0-43.462 9.058-75.394 25.574-75.394 16.517 0 27.706 21.288 34.365 54.106l23.976-64.75Zm35.697-79.828h35.164v599.601h-35.164zm193.404 79.828c-9.59-46.123-27.172-88.698-58.341-88.698-44.222 0-61.804 88.698-61.804 181.832 0 74.506 11.189 133.047 42.624 165.866l22.643 23.061c13.587 14.192 20.247 35.48 20.247 72.733 0 45.236-10.123 75.394-28.505 75.394-24.508 0-33.832-34.593-40.492-76.281l-23.976 65.637c7.459 47.01 24.775 109.986 64.468 109.986 37.562 0 64.734-67.411 64.734-183.606 0-76.28-11.721-131.273-43.955-164.979l-22.91-23.061c-13.32-14.192-18.648-36.367-18.648-71.846 0-43.462 9.058-75.394 25.574-75.394 16.517 0 27.706 21.288 34.365 54.106l23.976-64.75Zm132.133 376.969-36.23-456.797H635.34l-21.578 599.601h33.3l14.918-459.458 36.762 459.458h38.095l39.16-463.893 13.054 463.893h32.767L802.903 12.418H756.55l-38.094 456.797Z" style="fill:#231f20;fill-rule:nonzero" transform="matrix(1.945725 0 0 .584377 231.74303972 360.27837562)"/>
</svg>
